<mxfile host="Electron" modified="2024-04-29T22:17:17.838Z" agent="Mozilla/5.0 (Windows NT 10.0; Win64; x64) AppleWebKit/537.36 (KHTML, like Gecko) draw.io/23.1.5 Chrome/120.0.6099.109 Electron/28.1.0 Safari/537.36" etag="B6zoNkdbYc4_XkqjZ77e" version="23.1.5" type="device">
  <diagram name="Page-1" id="D4jjd653WhLHZPP0HxEm">
    <mxGraphModel dx="4279" dy="404" grid="1" gridSize="10" guides="1" tooltips="1" connect="1" arrows="1" fold="1" page="1" pageScale="1" pageWidth="827" pageHeight="1169" math="0" shadow="0">
      <root>
        <mxCell id="0" />
        <mxCell id="1" parent="0" />
        <mxCell id="yPqAMtaEenO2p8fV_E_8-33" value="Oktató&lt;br&gt;" style="shape=stencil(tZRtjoMgEIZPw98GJR6gYXfvQe10nZQCAbYft99RNKlW7GajiTGZeeXhnZGBCRka5YCVvGHig5VlwTm9Kb5NYhUc1DElr8qjOmhISojenuGGx9gz0DTgMbaq+GR8T9+0j5C1NYYgaE0YKU86wRQaWsvvCdZv/xhFjvgXiOB7kynLyq+/Y3fVNuBiI79j7OB+db/rgceOi61+3Grg4v9YISmTO9xCHlR9/vb2xxxnzYDW6AK8OfLTeZzO66ynzM5CnqyHBUsn1DqN9UITnWoH/kUY5Iu9PtVUzRY1jx4IGk22K9UioSs+44+uvFxl3bKX1nTZdE12iV8=);whiteSpace=wrap;html=1;" parent="1" vertex="1">
          <mxGeometry x="-1590" y="1860" width="120" height="80" as="geometry" />
        </mxCell>
        <mxCell id="yPqAMtaEenO2p8fV_E_8-42" value="Felhasználó" style="shape=stencil(tZRtjoMgEIZPw98GJR6gYXfvQe10nZQCAbYft99RNKlW7GajiTGZeeXhnZGBCRka5YCVvGHig5VlwTm9Kb5NYhUc1DElr8qjOmhISojenuGGx9gz0DTgMbaq+GR8T9+0j5C1NYYgaE0YKU86wRQaWsvvCdZv/xhFjvgXiOB7kynLyq+/Y3fVNuBiI79j7OB+db/rgceOi61+3Grg4v9YISmTO9xCHlR9/vb2xxxnzYDW6AK8OfLTeZzO66ynzM5CnqyHBUsn1DqN9UITnWoH/kUY5Iu9PtVUzRY1jx4IGk22K9UioSs+44+uvFxl3bKX1nTZdE12iV8=);whiteSpace=wrap;html=1;" parent="1" vertex="1">
          <mxGeometry x="-1590" y="2020" width="120" height="80" as="geometry" />
        </mxCell>
        <mxCell id="yPqAMtaEenO2p8fV_E_8-43" value="Felhasználó kód, jelszó" style="endArrow=classic;html=1;rounded=0;verticalAlign=bottom;" parent="1" source="yPqAMtaEenO2p8fV_E_8-42" target="yPqAMtaEenO2p8fV_E_8-212" edge="1">
          <mxGeometry width="50" height="50" relative="1" as="geometry">
            <mxPoint x="-1000" y="2160" as="sourcePoint" />
            <mxPoint x="-1310.0000000000002" y="2060" as="targetPoint" />
          </mxGeometry>
        </mxCell>
        <mxCell id="yPqAMtaEenO2p8fV_E_8-45" value="Felhasználók" style="html=1;dashed=0;whitespace=wrap;shape=mxgraph.dfd.dataStoreID;align=left;spacingLeft=33;container=1;collapsible=0;autosize=0;flipH=0;" parent="1" vertex="1">
          <mxGeometry x="-1070" y="2045" width="120" height="30" as="geometry" />
        </mxCell>
        <mxCell id="yPqAMtaEenO2p8fV_E_8-46" value="L12" style="text;html=1;strokeColor=none;fillColor=none;align=center;verticalAlign=middle;whiteSpace=wrap;rounded=0;movable=0;resizable=0;rotatable=0;cloneable=0;deletable=0;allowArrows=0;connectable=0;" parent="yPqAMtaEenO2p8fV_E_8-45" vertex="1">
          <mxGeometry width="30" height="30" as="geometry" />
        </mxCell>
        <mxCell id="yPqAMtaEenO2p8fV_E_8-50" value="&lt;br&gt;" style="endArrow=classic;startArrow=classic;html=1;rounded=0;verticalAlign=bottom;entryX=-0.012;entryY=0.472;entryDx=0;entryDy=0;entryPerimeter=0;" parent="1" source="yPqAMtaEenO2p8fV_E_8-212" target="yPqAMtaEenO2p8fV_E_8-45" edge="1">
          <mxGeometry width="50" height="50" relative="1" as="geometry">
            <mxPoint x="-1150.0000000000002" y="2058.5080645161297" as="sourcePoint" />
            <mxPoint x="-920" y="2160" as="targetPoint" />
          </mxGeometry>
        </mxCell>
        <mxCell id="yPqAMtaEenO2p8fV_E_8-55" value="Felhasználó kezelése" style="html=1;dashed=0;whitespace=wrap;shape=mxgraph.dfd.process;align=center;container=1;collapsible=0;spacingTop=30;" parent="1" vertex="1">
          <mxGeometry x="-1270" y="1635" width="160" height="120" as="geometry" />
        </mxCell>
        <mxCell id="yPqAMtaEenO2p8fV_E_8-56" value="5" style="text;html=1;strokeColor=none;fillColor=none;align=center;verticalAlign=middle;whiteSpace=wrap;rounded=0;movable=0;resizable=0;rotatable=0;cloneable=0;deletable=0;connectable=0;allowArrows=0;pointerEvents=1;" parent="yPqAMtaEenO2p8fV_E_8-55" vertex="1">
          <mxGeometry width="35" height="30" as="geometry" />
        </mxCell>
        <mxCell id="yPqAMtaEenO2p8fV_E_8-57" value="" style="text;html=1;strokeColor=none;fillColor=none;align=left;verticalAlign=middle;whiteSpace=wrap;rounded=0;movable=0;resizable=0;connectable=0;allowArrows=0;rotatable=0;cloneable=0;deletable=0;spacingLeft=6;autosize=1;resizeWidth=0;" parent="yPqAMtaEenO2p8fV_E_8-55" vertex="1">
          <mxGeometry x="35" y="-5" width="50" height="40" as="geometry" />
        </mxCell>
        <mxCell id="yPqAMtaEenO2p8fV_E_8-58" value="Hallgató, Admin adatai , Szak Név" style="endArrow=classic;html=1;rounded=0;verticalAlign=bottom;entryX=-0.023;entryY=0.498;entryDx=0;entryDy=0;entryPerimeter=0;exitX=1;exitY=0.5;exitDx=0;exitDy=0;" parent="1" source="yPqAMtaEenO2p8fV_E_8-189" target="yPqAMtaEenO2p8fV_E_8-55" edge="1">
          <mxGeometry x="0.0156" width="50" height="50" relative="1" as="geometry">
            <mxPoint x="-1730" y="1300.0000000000005" as="sourcePoint" />
            <mxPoint x="-970" y="1450" as="targetPoint" />
            <mxPoint as="offset" />
          </mxGeometry>
        </mxCell>
        <mxCell id="yPqAMtaEenO2p8fV_E_8-59" value="Termek kezelése" style="html=1;dashed=0;whitespace=wrap;shape=mxgraph.dfd.process;align=center;container=1;collapsible=0;spacingTop=30;" parent="1" vertex="1">
          <mxGeometry x="-1270" y="1420" width="160" height="120" as="geometry" />
        </mxCell>
        <mxCell id="yPqAMtaEenO2p8fV_E_8-60" value="3" style="text;html=1;strokeColor=none;fillColor=none;align=center;verticalAlign=middle;whiteSpace=wrap;rounded=0;movable=0;resizable=0;rotatable=0;cloneable=0;deletable=0;connectable=0;allowArrows=0;pointerEvents=1;" parent="yPqAMtaEenO2p8fV_E_8-59" vertex="1">
          <mxGeometry width="35" height="30" as="geometry" />
        </mxCell>
        <mxCell id="yPqAMtaEenO2p8fV_E_8-61" value="" style="text;html=1;strokeColor=none;fillColor=none;align=left;verticalAlign=middle;whiteSpace=wrap;rounded=0;movable=0;resizable=0;connectable=0;allowArrows=0;rotatable=0;cloneable=0;deletable=0;spacingLeft=6;autosize=1;resizeWidth=0;" parent="yPqAMtaEenO2p8fV_E_8-59" vertex="1">
          <mxGeometry x="35" y="-5" width="50" height="40" as="geometry" />
        </mxCell>
        <mxCell id="yPqAMtaEenO2p8fV_E_8-62" value="terem adatai" style="endArrow=classic;html=1;rounded=0;verticalAlign=bottom;entryX=0.01;entryY=0.63;entryDx=0;entryDy=0;entryPerimeter=0;" parent="1" source="yPqAMtaEenO2p8fV_E_8-192" target="yPqAMtaEenO2p8fV_E_8-59" edge="1">
          <mxGeometry width="50" height="50" relative="1" as="geometry">
            <mxPoint x="-1670" y="1380" as="sourcePoint" />
            <mxPoint x="-970" y="1460" as="targetPoint" />
          </mxGeometry>
        </mxCell>
        <mxCell id="yPqAMtaEenO2p8fV_E_8-75" value="" style="endArrow=classic;startArrow=classic;html=1;rounded=0;verticalAlign=bottom;entryX=0.004;entryY=0.583;entryDx=0;entryDy=0;entryPerimeter=0;" parent="1" source="yPqAMtaEenO2p8fV_E_8-59" target="yPqAMtaEenO2p8fV_E_8-228" edge="1">
          <mxGeometry width="50" height="50" relative="1" as="geometry">
            <mxPoint x="-1320" y="1516" as="sourcePoint" />
            <mxPoint x="-1020" y="1480" as="targetPoint" />
          </mxGeometry>
        </mxCell>
        <mxCell id="yPqAMtaEenO2p8fV_E_8-92" value="" style="endArrow=classic;startArrow=classic;html=1;rounded=0;verticalAlign=bottom;entryX=-0.018;entryY=0.483;entryDx=0;entryDy=0;entryPerimeter=0;" parent="1" source="yPqAMtaEenO2p8fV_E_8-55" target="yPqAMtaEenO2p8fV_E_8-234" edge="1">
          <mxGeometry width="50" height="50" relative="1" as="geometry">
            <mxPoint x="-1340" y="1675" as="sourcePoint" />
            <mxPoint x="-1040" y="1658.6363636363635" as="targetPoint" />
          </mxGeometry>
        </mxCell>
        <mxCell id="yPqAMtaEenO2p8fV_E_8-93" value="" style="endArrow=classic;startArrow=classic;html=1;rounded=0;verticalAlign=bottom;entryX=-0.018;entryY=0.506;entryDx=0;entryDy=0;entryPerimeter=0;" parent="1" source="yPqAMtaEenO2p8fV_E_8-55" target="yPqAMtaEenO2p8fV_E_8-232" edge="1">
          <mxGeometry width="50" height="50" relative="1" as="geometry">
            <mxPoint x="-1340" y="1675" as="sourcePoint" />
            <mxPoint x="-1036.28" y="1702.77" as="targetPoint" />
          </mxGeometry>
        </mxCell>
        <mxCell id="yPqAMtaEenO2p8fV_E_8-98" value="kurzus adatai, Felhasználó Kód,&lt;br&gt;Tárgy kód" style="endArrow=classic;html=1;rounded=0;verticalAlign=bottom;entryX=0.005;entryY=0.544;entryDx=0;entryDy=0;entryPerimeter=0;" parent="1" source="yPqAMtaEenO2p8fV_E_8-193" target="yPqAMtaEenO2p8fV_E_8-103" edge="1">
          <mxGeometry width="50" height="50" relative="1" as="geometry">
            <mxPoint x="-1728.5714285714284" y="1540" as="sourcePoint" />
            <mxPoint x="-1270" y="1300" as="targetPoint" />
          </mxGeometry>
        </mxCell>
        <mxCell id="yPqAMtaEenO2p8fV_E_8-99" value="Kurzus" style="html=1;dashed=0;whitespace=wrap;shape=mxgraph.dfd.dataStoreID2;align=left;spacingLeft=38;container=1;collapsible=0;flipH=0;" parent="1" vertex="1">
          <mxGeometry x="-1060" y="1310" width="120" height="30" as="geometry" />
        </mxCell>
        <mxCell id="yPqAMtaEenO2p8fV_E_8-100" value="L2" style="text;html=1;strokeColor=none;fillColor=none;align=center;verticalAlign=middle;whiteSpace=wrap;rounded=0;connectable=0;allowArrows=0;movable=0;resizable=0;rotatable=0;cloneable=0;deletable=0;" parent="yPqAMtaEenO2p8fV_E_8-99" vertex="1">
          <mxGeometry x="5" width="30" height="30" as="geometry" />
        </mxCell>
        <mxCell id="yPqAMtaEenO2p8fV_E_8-102" value="" style="endArrow=classic;startArrow=classic;html=1;rounded=0;verticalAlign=bottom;entryX=0.003;entryY=0.5;entryDx=0;entryDy=0;entryPerimeter=0;" parent="1" source="yPqAMtaEenO2p8fV_E_8-103" target="yPqAMtaEenO2p8fV_E_8-99" edge="1">
          <mxGeometry width="50" height="50" relative="1" as="geometry">
            <mxPoint x="-1120" y="1300" as="sourcePoint" />
            <mxPoint x="-1210" y="1560" as="targetPoint" />
          </mxGeometry>
        </mxCell>
        <mxCell id="yPqAMtaEenO2p8fV_E_8-103" value="Kurzus kezelése" style="html=1;dashed=0;whitespace=wrap;shape=mxgraph.dfd.process;align=center;container=1;collapsible=0;spacingTop=30;" parent="1" vertex="1">
          <mxGeometry x="-1270" y="1240" width="160" height="120" as="geometry" />
        </mxCell>
        <mxCell id="yPqAMtaEenO2p8fV_E_8-104" value="1" style="text;html=1;strokeColor=none;fillColor=none;align=center;verticalAlign=middle;whiteSpace=wrap;rounded=0;movable=0;resizable=0;rotatable=0;cloneable=0;deletable=0;connectable=0;allowArrows=0;pointerEvents=1;" parent="yPqAMtaEenO2p8fV_E_8-103" vertex="1">
          <mxGeometry width="35" height="30" as="geometry" />
        </mxCell>
        <mxCell id="yPqAMtaEenO2p8fV_E_8-105" value="" style="text;html=1;strokeColor=none;fillColor=none;align=left;verticalAlign=middle;whiteSpace=wrap;rounded=0;movable=0;resizable=0;connectable=0;allowArrows=0;rotatable=0;cloneable=0;deletable=0;spacingLeft=6;autosize=1;resizeWidth=0;" parent="yPqAMtaEenO2p8fV_E_8-103" vertex="1">
          <mxGeometry x="35" y="-5" width="50" height="40" as="geometry" />
        </mxCell>
        <mxCell id="yPqAMtaEenO2p8fV_E_8-106" value="Vizsgák kezelése" style="html=1;dashed=0;whitespace=wrap;shape=mxgraph.dfd.process;align=center;container=1;collapsible=0;spacingTop=30;" parent="1" vertex="1">
          <mxGeometry x="-1280" y="1830" width="160" height="120" as="geometry" />
        </mxCell>
        <mxCell id="yPqAMtaEenO2p8fV_E_8-107" value="6" style="text;html=1;strokeColor=none;fillColor=none;align=center;verticalAlign=middle;whiteSpace=wrap;rounded=0;movable=0;resizable=0;rotatable=0;cloneable=0;deletable=0;connectable=0;allowArrows=0;pointerEvents=1;" parent="yPqAMtaEenO2p8fV_E_8-106" vertex="1">
          <mxGeometry width="35" height="30" as="geometry" />
        </mxCell>
        <mxCell id="yPqAMtaEenO2p8fV_E_8-108" value="" style="text;html=1;strokeColor=none;fillColor=none;align=left;verticalAlign=middle;whiteSpace=wrap;rounded=0;movable=0;resizable=0;connectable=0;allowArrows=0;rotatable=0;cloneable=0;deletable=0;spacingLeft=6;autosize=1;resizeWidth=0;" parent="yPqAMtaEenO2p8fV_E_8-106" vertex="1">
          <mxGeometry x="35" y="-5" width="50" height="40" as="geometry" />
        </mxCell>
        <mxCell id="yPqAMtaEenO2p8fV_E_8-109" value="vizsgák adatai,Terem Kód,&lt;br&gt;Tárgy kód" style="endArrow=classic;html=1;rounded=0;verticalAlign=bottom;exitX=0.983;exitY=0.408;exitDx=0;exitDy=0;exitPerimeter=0;" parent="1" source="yPqAMtaEenO2p8fV_E_8-33" target="yPqAMtaEenO2p8fV_E_8-106" edge="1">
          <mxGeometry width="50" height="50" relative="1" as="geometry">
            <mxPoint x="-1345" y="1940" as="sourcePoint" />
            <mxPoint x="-1225" y="1940" as="targetPoint" />
          </mxGeometry>
        </mxCell>
        <mxCell id="yPqAMtaEenO2p8fV_E_8-112" value="" style="endArrow=classic;startArrow=classic;html=1;rounded=0;verticalAlign=bottom;entryX=0.01;entryY=0.561;entryDx=0;entryDy=0;entryPerimeter=0;" parent="1" source="yPqAMtaEenO2p8fV_E_8-106" target="yPqAMtaEenO2p8fV_E_8-242" edge="1">
          <mxGeometry x="-0.4656" y="30" width="50" height="50" relative="1" as="geometry">
            <mxPoint x="-1345" y="1940" as="sourcePoint" />
            <mxPoint x="-1074.1999999999998" y="1888.5" as="targetPoint" />
            <mxPoint y="-1" as="offset" />
          </mxGeometry>
        </mxCell>
        <mxCell id="yPqAMtaEenO2p8fV_E_8-120" value="Kurzust oktat" style="html=1;dashed=0;whitespace=wrap;shape=mxgraph.dfd.dataStoreID;align=left;spacingLeft=33;container=1;collapsible=0;autosize=0;flipH=0;" parent="1" vertex="1">
          <mxGeometry x="-1060" y="1260" width="120" height="30" as="geometry" />
        </mxCell>
        <mxCell id="yPqAMtaEenO2p8fV_E_8-121" value="L1" style="text;html=1;strokeColor=none;fillColor=none;align=center;verticalAlign=middle;whiteSpace=wrap;rounded=0;movable=0;resizable=0;rotatable=0;cloneable=0;deletable=0;allowArrows=0;connectable=0;" parent="yPqAMtaEenO2p8fV_E_8-120" vertex="1">
          <mxGeometry width="30" height="30" as="geometry" />
        </mxCell>
        <mxCell id="yPqAMtaEenO2p8fV_E_8-122" value="" style="endArrow=classic;startArrow=classic;html=1;rounded=0;verticalAlign=bottom;entryX=-0.002;entryY=0.392;entryDx=0;entryDy=0;entryPerimeter=0;" parent="1" source="yPqAMtaEenO2p8fV_E_8-103" target="yPqAMtaEenO2p8fV_E_8-120" edge="1">
          <mxGeometry width="50" height="50" relative="1" as="geometry">
            <mxPoint x="-1530" y="1380" as="sourcePoint" />
            <mxPoint x="-970" y="1200" as="targetPoint" />
          </mxGeometry>
        </mxCell>
        <mxCell id="yPqAMtaEenO2p8fV_E_8-151" value="Felhasználó kód,Vizsga kód" style="endArrow=classic;html=1;rounded=0;verticalAlign=bottom;exitX=1;exitY=0.5;exitDx=0;exitDy=0;" parent="1" source="yPqAMtaEenO2p8fV_E_8-197" target="yPqAMtaEenO2p8fV_E_8-511" edge="1">
          <mxGeometry width="50" height="50" relative="1" as="geometry">
            <mxPoint x="-1549.1999999999998" y="2280.7200000000003" as="sourcePoint" />
            <mxPoint x="-1280" y="2210" as="targetPoint" />
          </mxGeometry>
        </mxCell>
        <mxCell id="yPqAMtaEenO2p8fV_E_8-152" value="Felhasználó kód, Kurzus kód" style="endArrow=classic;html=1;rounded=0;verticalAlign=bottom;" parent="1" source="yPqAMtaEenO2p8fV_E_8-202" target="yPqAMtaEenO2p8fV_E_8-505" edge="1">
          <mxGeometry width="50" height="50" relative="1" as="geometry">
            <mxPoint x="-1550.0000000000002" y="2350" as="sourcePoint" />
            <mxPoint x="-1270" y="2355" as="targetPoint" />
          </mxGeometry>
        </mxCell>
        <mxCell id="yPqAMtaEenO2p8fV_E_8-153" value="Felvett kurzus" style="html=1;dashed=0;whitespace=wrap;shape=mxgraph.dfd.dataStoreID2;align=left;spacingLeft=38;container=1;collapsible=0;flipH=0;" parent="1" vertex="1">
          <mxGeometry x="-1060" y="2295" width="120" height="30" as="geometry" />
        </mxCell>
        <mxCell id="yPqAMtaEenO2p8fV_E_8-154" value="L14" style="text;html=1;strokeColor=none;fillColor=none;align=center;verticalAlign=middle;whiteSpace=wrap;rounded=0;connectable=0;allowArrows=0;movable=0;resizable=0;rotatable=0;cloneable=0;deletable=0;" parent="yPqAMtaEenO2p8fV_E_8-153" vertex="1">
          <mxGeometry x="5" width="30" height="30" as="geometry" />
        </mxCell>
        <mxCell id="yPqAMtaEenO2p8fV_E_8-157" value="" style="endArrow=classic;startArrow=classic;html=1;rounded=0;verticalAlign=bottom;entryX=0.004;entryY=0.506;entryDx=0;entryDy=0;entryPerimeter=0;" parent="1" source="yPqAMtaEenO2p8fV_E_8-511" target="yPqAMtaEenO2p8fV_E_8-238" edge="1">
          <mxGeometry width="50" height="50" relative="1" as="geometry">
            <mxPoint x="-1120" y="2182.5199264255057" as="sourcePoint" />
            <mxPoint x="-1048.2" y="2183.74" as="targetPoint" />
          </mxGeometry>
        </mxCell>
        <mxCell id="yPqAMtaEenO2p8fV_E_8-158" value="" style="endArrow=classic;startArrow=classic;html=1;rounded=0;verticalAlign=bottom;entryX=-0.001;entryY=0.45;entryDx=0;entryDy=0;entryPerimeter=0;" parent="1" source="yPqAMtaEenO2p8fV_E_8-505" target="yPqAMtaEenO2p8fV_E_8-153" edge="1">
          <mxGeometry width="50" height="50" relative="1" as="geometry">
            <mxPoint x="-1110" y="2326.358176778565" as="sourcePoint" />
            <mxPoint x="-1250" y="2200" as="targetPoint" />
          </mxGeometry>
        </mxCell>
        <mxCell id="yPqAMtaEenO2p8fV_E_8-172" value="Üzenet olvasása" style="html=1;dashed=0;whitespace=wrap;shape=mxgraph.dfd.process2;align=center;container=1;collapsible=0;spacingTop=30;" parent="1" vertex="1">
          <mxGeometry x="-1275" y="2430" width="160" height="120" as="geometry" />
        </mxCell>
        <mxCell id="yPqAMtaEenO2p8fV_E_8-173" value="10" style="text;html=1;strokeColor=none;fillColor=none;align=center;verticalAlign=middle;whiteSpace=wrap;rounded=0;connectable=0;allowArrows=0;editable=1;movable=0;resizable=0;rotatable=0;deletable=0;locked=0;cloneable=0;" parent="yPqAMtaEenO2p8fV_E_8-172" vertex="1">
          <mxGeometry width="35" height="30" as="geometry" />
        </mxCell>
        <mxCell id="yPqAMtaEenO2p8fV_E_8-174" value="" style="text;strokeColor=none;fillColor=none;align=left;verticalAlign=middle;whiteSpace=wrap;rounded=0;autosize=1;connectable=0;allowArrows=0;movable=0;resizable=0;rotatable=0;deletable=0;cloneable=0;spacingLeft=6;fontStyle=0;html=1;" parent="yPqAMtaEenO2p8fV_E_8-172" vertex="1">
          <mxGeometry x="35" y="-5" width="50" height="40" as="geometry" />
        </mxCell>
        <mxCell id="yPqAMtaEenO2p8fV_E_8-175" value="Üzenet&amp;nbsp; információi" style="endArrow=classic;html=1;rounded=0;verticalAlign=bottom;exitX=-0.02;exitY=0.598;exitDx=0;exitDy=0;exitPerimeter=0;entryX=1;entryY=0.5;entryDx=0;entryDy=0;" parent="1" source="yPqAMtaEenO2p8fV_E_8-172" target="yPqAMtaEenO2p8fV_E_8-206" edge="1">
          <mxGeometry x="-0.0008" width="50" height="50" relative="1" as="geometry">
            <mxPoint x="-1350" y="2480" as="sourcePoint" />
            <mxPoint x="-1570" y="2310" as="targetPoint" />
            <mxPoint as="offset" />
          </mxGeometry>
        </mxCell>
        <mxCell id="yPqAMtaEenO2p8fV_E_8-178" value="" style="endArrow=classic;html=1;rounded=0;verticalAlign=bottom;exitX=0.004;exitY=0.539;exitDx=0;exitDy=0;exitPerimeter=0;" parent="1" source="yPqAMtaEenO2p8fV_E_8-244" target="yPqAMtaEenO2p8fV_E_8-172" edge="1">
          <mxGeometry width="50" height="50" relative="1" as="geometry">
            <mxPoint x="-1350" y="2480" as="sourcePoint" />
            <mxPoint x="-1230" y="2480" as="targetPoint" />
          </mxGeometry>
        </mxCell>
        <mxCell id="yPqAMtaEenO2p8fV_E_8-182" value="Kurzus iformációk" style="endArrow=classic;html=1;rounded=0;verticalAlign=bottom;edgeStyle=orthogonalEdgeStyle;" parent="1" source="yPqAMtaEenO2p8fV_E_8-505" target="yPqAMtaEenO2p8fV_E_8-202" edge="1">
          <mxGeometry x="0.3256" width="50" height="50" relative="1" as="geometry">
            <mxPoint x="-1270" y="2330" as="sourcePoint" />
            <mxPoint x="-1490" y="2313.0759371996155" as="targetPoint" />
            <Array as="points">
              <mxPoint x="-1340" y="2330" />
              <mxPoint x="-1340" y="2290" />
              <mxPoint x="-1530" y="2290" />
            </Array>
            <mxPoint as="offset" />
          </mxGeometry>
        </mxCell>
        <mxCell id="yPqAMtaEenO2p8fV_E_8-183" value="Vizsga információk" style="endArrow=classic;html=1;rounded=0;verticalAlign=bottom;edgeStyle=orthogonalEdgeStyle;" parent="1" target="yPqAMtaEenO2p8fV_E_8-197" edge="1">
          <mxGeometry width="50" height="50" relative="1" as="geometry">
            <mxPoint x="-1280" y="2180" as="sourcePoint" />
            <mxPoint x="-1526.28" y="2285.76" as="targetPoint" />
            <Array as="points">
              <mxPoint x="-1375" y="2180" />
              <mxPoint x="-1375" y="2150" />
              <mxPoint x="-1530" y="2150" />
            </Array>
          </mxGeometry>
        </mxCell>
        <mxCell id="yPqAMtaEenO2p8fV_E_8-184" value="Kurzus információk" style="endArrow=classic;html=1;rounded=0;verticalAlign=bottom;edgeStyle=orthogonalEdgeStyle;" parent="1" source="yPqAMtaEenO2p8fV_E_8-103" target="yPqAMtaEenO2p8fV_E_8-193" edge="1">
          <mxGeometry x="0.328" y="-2" width="50" height="50" relative="1" as="geometry">
            <mxPoint x="-1350" y="1420" as="sourcePoint" />
            <mxPoint x="-1720.2799999999997" y="1540.72" as="targetPoint" />
            <Array as="points">
              <mxPoint x="-1347" y="1270" />
              <mxPoint x="-1347" y="1250" />
              <mxPoint x="-1485" y="1250" />
            </Array>
            <mxPoint as="offset" />
          </mxGeometry>
        </mxCell>
        <mxCell id="yPqAMtaEenO2p8fV_E_8-186" value="Terem információk" style="endArrow=classic;html=1;rounded=0;verticalAlign=bottom;exitX=-0.014;exitY=0.206;exitDx=0;exitDy=0;exitPerimeter=0;edgeStyle=orthogonalEdgeStyle;" parent="1" source="yPqAMtaEenO2p8fV_E_8-59" target="yPqAMtaEenO2p8fV_E_8-192" edge="1">
          <mxGeometry width="50" height="50" relative="1" as="geometry">
            <mxPoint x="-1350" y="1470" as="sourcePoint" />
            <mxPoint x="-1510" y="1410" as="targetPoint" />
            <Array as="points">
              <mxPoint x="-1347" y="1445" />
              <mxPoint x="-1347" y="1430" />
              <mxPoint x="-1485" y="1430" />
            </Array>
          </mxGeometry>
        </mxCell>
        <mxCell id="yPqAMtaEenO2p8fV_E_8-189" value="Admin" style="shape=stencil(tZRtjoMgEIZPw98GJR6gYXfvQe10nZQCAbYft99RNKlW7GajiTGZeeXhnZGBCRka5YCVvGHig5VlwTm9Kb5NYhUc1DElr8qjOmhISojenuGGx9gz0DTgMbaq+GR8T9+0j5C1NYYgaE0YKU86wRQaWsvvCdZv/xhFjvgXiOB7kynLyq+/Y3fVNuBiI79j7OB+db/rgceOi61+3Grg4v9YISmTO9xCHlR9/vb2xxxnzYDW6AK8OfLTeZzO66ynzM5CnqyHBUsn1DqN9UITnWoH/kUY5Iu9PtVUzRY1jx4IGk22K9UioSs+44+uvFxl3bKX1nTZdE12iV8=);whiteSpace=wrap;html=1;" parent="1" vertex="1">
          <mxGeometry x="-1590" y="1655" width="120" height="80" as="geometry" />
        </mxCell>
        <mxCell id="yPqAMtaEenO2p8fV_E_8-192" value="Admin" style="shape=stencil(tZRtjoMgEIZPw98GJR6gYXfvQe10nZQCAbYft99RNKlW7GajiTGZeeXhnZGBCRka5YCVvGHig5VlwTm9Kb5NYhUc1DElr8qjOmhISojenuGGx9gz0DTgMbaq+GR8T9+0j5C1NYYgaE0YKU86wRQaWsvvCdZv/xhFjvgXiOB7kynLyq+/Y3fVNuBiI79j7OB+db/rgceOi61+3Grg4v9YISmTO9xCHlR9/vb2xxxnzYDW6AK8OfLTeZzO66ynzM5CnqyHBUsn1DqN9UITnWoH/kUY5Iu9PtVUzRY1jx4IGk22K9UioSs+44+uvFxl3bKX1nTZdE12iV8=);whiteSpace=wrap;html=1;" parent="1" vertex="1">
          <mxGeometry x="-1545" y="1460" width="120" height="80" as="geometry" />
        </mxCell>
        <mxCell id="yPqAMtaEenO2p8fV_E_8-193" value="Admin" style="shape=stencil(tZRtjoMgEIZPw98GJR6gYXfvQe10nZQCAbYft99RNKlW7GajiTGZeeXhnZGBCRka5YCVvGHig5VlwTm9Kb5NYhUc1DElr8qjOmhISojenuGGx9gz0DTgMbaq+GR8T9+0j5C1NYYgaE0YKU86wRQaWsvvCdZv/xhFjvgXiOB7kynLyq+/Y3fVNuBiI79j7OB+db/rgceOi61+3Grg4v9YISmTO9xCHlR9/vb2xxxnzYDW6AK8OfLTeZzO66ynzM5CnqyHBUsn1DqN9UITnWoH/kUY5Iu9PtVUzRY1jx4IGk22K9UioSs+44+uvFxl3bKX1nTZdE12iV8=);whiteSpace=wrap;html=1;" parent="1" vertex="1">
          <mxGeometry x="-1545" y="1270" width="120" height="80" as="geometry" />
        </mxCell>
        <mxCell id="yPqAMtaEenO2p8fV_E_8-195" value="Hallgató, Felhasználó és Admin információi" style="endArrow=classic;html=1;rounded=0;verticalAlign=bottom;exitX=0.023;exitY=0.231;exitDx=0;exitDy=0;exitPerimeter=0;edgeStyle=orthogonalEdgeStyle;" parent="1" source="yPqAMtaEenO2p8fV_E_8-55" target="yPqAMtaEenO2p8fV_E_8-189" edge="1">
          <mxGeometry width="50" height="50" relative="1" as="geometry">
            <mxPoint x="-1350" y="1650" as="sourcePoint" />
            <mxPoint x="-1230" y="1650" as="targetPoint" />
            <Array as="points">
              <mxPoint x="-1390" y="1663" />
              <mxPoint x="-1390" y="1630" />
              <mxPoint x="-1530" y="1630" />
            </Array>
          </mxGeometry>
        </mxCell>
        <mxCell id="yPqAMtaEenO2p8fV_E_8-196" value="Vizsgák információi&amp;nbsp;" style="endArrow=classic;html=1;rounded=0;verticalAlign=bottom;edgeStyle=orthogonalEdgeStyle;" parent="1" source="yPqAMtaEenO2p8fV_E_8-106" target="yPqAMtaEenO2p8fV_E_8-33" edge="1">
          <mxGeometry x="0.3609" width="50" height="50" relative="1" as="geometry">
            <mxPoint x="-1360" y="1680" as="sourcePoint" />
            <mxPoint x="-1240" y="1680" as="targetPoint" />
            <Array as="points">
              <mxPoint x="-1380" y="1850" />
              <mxPoint x="-1380" y="1830" />
              <mxPoint x="-1540" y="1830" />
            </Array>
            <mxPoint as="offset" />
          </mxGeometry>
        </mxCell>
        <mxCell id="yPqAMtaEenO2p8fV_E_8-197" value="Hallgató" style="shape=stencil(tZRtjoMgEIZPw98GJR6gYXfvQe10nZQCAbYft99RNKlW7GajiTGZeeXhnZGBCRka5YCVvGHig5VlwTm9Kb5NYhUc1DElr8qjOmhISojenuGGx9gz0DTgMbaq+GR8T9+0j5C1NYYgaE0YKU86wRQaWsvvCdZv/xhFjvgXiOB7kynLyq+/Y3fVNuBiI79j7OB+db/rgceOi61+3Grg4v9YISmTO9xCHlR9/vb2xxxnzYDW6AK8OfLTeZzO66ynzM5CnqyHBUsn1DqN9UITnWoH/kUY5Iu9PtVUzRY1jx4IGk22K9UioSs+44+uvFxl3bKX1nTZdE12iV8=);whiteSpace=wrap;html=1;" parent="1" vertex="1">
          <mxGeometry x="-1590" y="2170" width="120" height="80" as="geometry" />
        </mxCell>
        <mxCell id="yPqAMtaEenO2p8fV_E_8-198" value="Vizsga" style="html=1;dashed=0;whitespace=wrap;shape=mxgraph.dfd.dataStoreID2;align=left;spacingLeft=38;container=1;collapsible=0;flipH=0;" parent="1" vertex="1">
          <mxGeometry x="-1070" y="2240" width="120" height="30" as="geometry" />
        </mxCell>
        <mxCell id="yPqAMtaEenO2p8fV_E_8-199" value="L11" style="text;html=1;strokeColor=none;fillColor=none;align=center;verticalAlign=middle;whiteSpace=wrap;rounded=0;connectable=0;allowArrows=0;movable=0;resizable=0;rotatable=0;cloneable=0;deletable=0;" parent="yPqAMtaEenO2p8fV_E_8-198" vertex="1">
          <mxGeometry x="5" width="30" height="30" as="geometry" />
        </mxCell>
        <mxCell id="yPqAMtaEenO2p8fV_E_8-200" value="" style="endArrow=none;startArrow=classic;html=1;rounded=0;verticalAlign=bottom;entryX=0.006;entryY=0.425;entryDx=0;entryDy=0;entryPerimeter=0;startFill=1;endFill=0;" parent="1" source="yPqAMtaEenO2p8fV_E_8-511" target="yPqAMtaEenO2p8fV_E_8-198" edge="1">
          <mxGeometry width="50" height="50" relative="1" as="geometry">
            <mxPoint x="-1120" y="2236.1627906976746" as="sourcePoint" />
            <mxPoint x="-1240" y="2080" as="targetPoint" />
          </mxGeometry>
        </mxCell>
        <mxCell id="yPqAMtaEenO2p8fV_E_8-202" value="Hallgató" style="shape=stencil(tZRtjoMgEIZPw98GJR6gYXfvQe10nZQCAbYft99RNKlW7GajiTGZeeXhnZGBCRka5YCVvGHig5VlwTm9Kb5NYhUc1DElr8qjOmhISojenuGGx9gz0DTgMbaq+GR8T9+0j5C1NYYgaE0YKU86wRQaWsvvCdZv/xhFjvgXiOB7kynLyq+/Y3fVNuBiI79j7OB+db/rgceOi61+3Grg4v9YISmTO9xCHlR9/vb2xxxnzYDW6AK8OfLTeZzO66ynzM5CnqyHBUsn1DqN9UITnWoH/kUY5Iu9PtVUzRY1jx4IGk22K9UioSs+44+uvFxl3bKX1nTZdE12iV8=);whiteSpace=wrap;html=1;" parent="1" vertex="1">
          <mxGeometry x="-1590" y="2315" width="120" height="80" as="geometry" />
        </mxCell>
        <mxCell id="yPqAMtaEenO2p8fV_E_8-203" value="Kurzus" style="html=1;dashed=0;whitespace=wrap;shape=mxgraph.dfd.dataStoreID2;align=left;spacingLeft=38;container=1;collapsible=0;flipH=0;" parent="1" vertex="1">
          <mxGeometry x="-1060" y="2384" width="120" height="30" as="geometry" />
        </mxCell>
        <mxCell id="yPqAMtaEenO2p8fV_E_8-204" value="L2" style="text;html=1;strokeColor=none;fillColor=none;align=center;verticalAlign=middle;whiteSpace=wrap;rounded=0;connectable=0;allowArrows=0;movable=0;resizable=0;rotatable=0;cloneable=0;deletable=0;" parent="yPqAMtaEenO2p8fV_E_8-203" vertex="1">
          <mxGeometry x="5" width="30" height="30" as="geometry" />
        </mxCell>
        <mxCell id="yPqAMtaEenO2p8fV_E_8-205" value="" style="endArrow=classic;html=1;rounded=0;verticalAlign=bottom;exitX=-0.01;exitY=0.558;exitDx=0;exitDy=0;exitPerimeter=0;" parent="1" source="yPqAMtaEenO2p8fV_E_8-203" target="yPqAMtaEenO2p8fV_E_8-505" edge="1">
          <mxGeometry width="50" height="50" relative="1" as="geometry">
            <mxPoint x="-1350" y="2380" as="sourcePoint" />
            <mxPoint x="-1110" y="2383.409937888199" as="targetPoint" />
          </mxGeometry>
        </mxCell>
        <mxCell id="yPqAMtaEenO2p8fV_E_8-206" value="Felhasználó" style="shape=stencil(tZRtjoMgEIZPw98GJR6gYXfvQe10nZQCAbYft99RNKlW7GajiTGZeeXhnZGBCRka5YCVvGHig5VlwTm9Kb5NYhUc1DElr8qjOmhISojenuGGx9gz0DTgMbaq+GR8T9+0j5C1NYYgaE0YKU86wRQaWsvvCdZv/xhFjvgXiOB7kynLyq+/Y3fVNuBiI79j7OB+db/rgceOi61+3Grg4v9YISmTO9xCHlR9/vb2xxxnzYDW6AK8OfLTeZzO66ynzM5CnqyHBUsn1DqN9UITnWoH/kUY5Iu9PtVUzRY1jx4IGk22K9UioSs+44+uvFxl3bKX1nTZdE12iV8=);whiteSpace=wrap;html=1;" parent="1" vertex="1">
          <mxGeometry x="-1590" y="2460" width="120" height="80" as="geometry" />
        </mxCell>
        <mxCell id="yPqAMtaEenO2p8fV_E_8-209" value="Felhasználók" style="html=1;dashed=0;whitespace=wrap;shape=mxgraph.dfd.dataStoreID;align=left;spacingLeft=33;container=1;collapsible=0;autosize=0;" parent="1" vertex="1">
          <mxGeometry x="-1060" y="1725" width="120" height="30" as="geometry" />
        </mxCell>
        <mxCell id="yPqAMtaEenO2p8fV_E_8-210" value="L10" style="text;html=1;strokeColor=none;fillColor=none;align=center;verticalAlign=middle;whiteSpace=wrap;rounded=0;movable=0;resizable=0;rotatable=0;cloneable=0;deletable=0;allowArrows=0;connectable=0;" parent="yPqAMtaEenO2p8fV_E_8-209" vertex="1">
          <mxGeometry width="30" height="30" as="geometry" />
        </mxCell>
        <mxCell id="yPqAMtaEenO2p8fV_E_8-212" value="Bejelentkezés" style="html=1;dashed=0;whitespace=wrap;shape=mxgraph.dfd.process2;align=center;container=1;collapsible=0;spacingTop=30;" parent="1" vertex="1">
          <mxGeometry x="-1280" y="2000" width="160" height="120" as="geometry" />
        </mxCell>
        <mxCell id="yPqAMtaEenO2p8fV_E_8-213" value="7" style="text;html=1;strokeColor=none;fillColor=none;align=center;verticalAlign=middle;whiteSpace=wrap;rounded=0;connectable=0;allowArrows=0;editable=1;movable=0;resizable=0;rotatable=0;deletable=0;locked=0;cloneable=0;" parent="yPqAMtaEenO2p8fV_E_8-212" vertex="1">
          <mxGeometry width="35" height="30" as="geometry" />
        </mxCell>
        <mxCell id="yPqAMtaEenO2p8fV_E_8-214" value="" style="text;strokeColor=none;fillColor=none;align=left;verticalAlign=middle;whiteSpace=wrap;rounded=0;autosize=1;connectable=0;allowArrows=0;movable=0;resizable=0;rotatable=0;deletable=0;cloneable=0;spacingLeft=6;fontStyle=0;html=1;" parent="yPqAMtaEenO2p8fV_E_8-212" vertex="1">
          <mxGeometry x="35" y="-5" width="50" height="40" as="geometry" />
        </mxCell>
        <mxCell id="yPqAMtaEenO2p8fV_E_8-215" value="" style="endArrow=classic;startArrow=classic;html=1;rounded=0;verticalAlign=bottom;entryX=0.005;entryY=0.388;entryDx=0;entryDy=0;entryPerimeter=0;" parent="1" source="yPqAMtaEenO2p8fV_E_8-55" target="yPqAMtaEenO2p8fV_E_8-209" edge="1">
          <mxGeometry x="-0.8063" y="4" width="50" height="50" relative="1" as="geometry">
            <mxPoint x="-1120" y="1760" as="sourcePoint" />
            <mxPoint x="-1270" y="1850" as="targetPoint" />
            <mxPoint as="offset" />
          </mxGeometry>
        </mxCell>
        <mxCell id="yPqAMtaEenO2p8fV_E_8-228" value="Terem" style="html=1;dashed=0;whitespace=wrap;shape=mxgraph.dfd.dataStoreID;align=left;spacingLeft=33;container=1;collapsible=0;autosize=0;" parent="1" vertex="1">
          <mxGeometry x="-1060" y="1465" width="120" height="30" as="geometry" />
        </mxCell>
        <mxCell id="yPqAMtaEenO2p8fV_E_8-229" value="L6" style="text;html=1;strokeColor=none;fillColor=none;align=center;verticalAlign=middle;whiteSpace=wrap;rounded=0;movable=0;resizable=0;rotatable=0;cloneable=0;deletable=0;allowArrows=0;connectable=0;" parent="yPqAMtaEenO2p8fV_E_8-228" vertex="1">
          <mxGeometry width="30" height="30" as="geometry" />
        </mxCell>
        <mxCell id="yPqAMtaEenO2p8fV_E_8-232" value="Admin" style="html=1;dashed=0;whitespace=wrap;shape=mxgraph.dfd.dataStoreID;align=left;spacingLeft=33;container=1;collapsible=0;autosize=0;" parent="1" vertex="1">
          <mxGeometry x="-1060" y="1680" width="120" height="30" as="geometry" />
        </mxCell>
        <mxCell id="yPqAMtaEenO2p8fV_E_8-233" value="L9" style="text;html=1;strokeColor=none;fillColor=none;align=center;verticalAlign=middle;whiteSpace=wrap;rounded=0;movable=0;resizable=0;rotatable=0;cloneable=0;deletable=0;allowArrows=0;connectable=0;" parent="yPqAMtaEenO2p8fV_E_8-232" vertex="1">
          <mxGeometry width="30" height="30" as="geometry" />
        </mxCell>
        <mxCell id="yPqAMtaEenO2p8fV_E_8-234" value="Hallgató" style="html=1;dashed=0;whitespace=wrap;shape=mxgraph.dfd.dataStoreID;align=left;spacingLeft=33;container=1;collapsible=0;autosize=0;" parent="1" vertex="1">
          <mxGeometry x="-1060" y="1635" width="120" height="30" as="geometry" />
        </mxCell>
        <mxCell id="yPqAMtaEenO2p8fV_E_8-235" value="L8" style="text;html=1;strokeColor=none;fillColor=none;align=center;verticalAlign=middle;whiteSpace=wrap;rounded=0;movable=0;resizable=0;rotatable=0;cloneable=0;deletable=0;allowArrows=0;connectable=0;" parent="yPqAMtaEenO2p8fV_E_8-234" vertex="1">
          <mxGeometry width="30" height="30" as="geometry" />
        </mxCell>
        <mxCell id="yPqAMtaEenO2p8fV_E_8-238" value="Felvett vizsga" style="html=1;dashed=0;whitespace=wrap;shape=mxgraph.dfd.dataStoreID;align=left;spacingLeft=33;container=1;collapsible=0;autosize=0;" parent="1" vertex="1">
          <mxGeometry x="-1070" y="2150" width="120" height="30" as="geometry" />
        </mxCell>
        <mxCell id="yPqAMtaEenO2p8fV_E_8-239" value="L13" style="text;html=1;strokeColor=none;fillColor=none;align=center;verticalAlign=middle;whiteSpace=wrap;rounded=0;movable=0;resizable=0;rotatable=0;cloneable=0;deletable=0;allowArrows=0;connectable=0;" parent="yPqAMtaEenO2p8fV_E_8-238" vertex="1">
          <mxGeometry width="30" height="30" as="geometry" />
        </mxCell>
        <mxCell id="yPqAMtaEenO2p8fV_E_8-242" value="Vizsga" style="html=1;dashed=0;whitespace=wrap;shape=mxgraph.dfd.dataStoreID2;align=left;spacingLeft=38;container=1;collapsible=0;flipH=0;" parent="1" vertex="1">
          <mxGeometry x="-1070" y="1875" width="120" height="30" as="geometry" />
        </mxCell>
        <mxCell id="yPqAMtaEenO2p8fV_E_8-243" value="L11" style="text;html=1;strokeColor=none;fillColor=none;align=center;verticalAlign=middle;whiteSpace=wrap;rounded=0;connectable=0;allowArrows=0;movable=0;resizable=0;rotatable=0;cloneable=0;deletable=0;" parent="yPqAMtaEenO2p8fV_E_8-242" vertex="1">
          <mxGeometry x="5" width="30" height="30" as="geometry" />
        </mxCell>
        <mxCell id="yPqAMtaEenO2p8fV_E_8-244" value="Üzenet" style="html=1;dashed=0;whitespace=wrap;shape=mxgraph.dfd.dataStoreID2;align=left;spacingLeft=38;container=1;collapsible=0;flipH=0;" parent="1" vertex="1">
          <mxGeometry x="-1050" y="2475" width="120" height="30" as="geometry" />
        </mxCell>
        <mxCell id="yPqAMtaEenO2p8fV_E_8-245" value="L15" style="text;html=1;strokeColor=none;fillColor=none;align=center;verticalAlign=middle;whiteSpace=wrap;rounded=0;connectable=0;allowArrows=0;movable=0;resizable=0;rotatable=0;cloneable=0;deletable=0;" parent="yPqAMtaEenO2p8fV_E_8-244" vertex="1">
          <mxGeometry x="5" width="30" height="30" as="geometry" />
        </mxCell>
        <mxCell id="yPqAMtaEenO2p8fV_E_8-493" value="Felhasználó kód, Kurzus kód" style="endArrow=classic;html=1;rounded=0;verticalAlign=bottom;" parent="1" source="yPqAMtaEenO2p8fV_E_8-498" target="yPqAMtaEenO2p8fV_E_8-514" edge="1">
          <mxGeometry width="50" height="50" relative="1" as="geometry">
            <mxPoint x="-1550.0000000000002" y="2672.95" as="sourcePoint" />
            <mxPoint x="-1270" y="2677.95" as="targetPoint" />
          </mxGeometry>
        </mxCell>
        <mxCell id="yPqAMtaEenO2p8fV_E_8-494" value="Felvett kurzus" style="html=1;dashed=0;whitespace=wrap;shape=mxgraph.dfd.dataStoreID2;align=left;spacingLeft=38;container=1;collapsible=0;flipH=0;" parent="1" vertex="1">
          <mxGeometry x="-1060" y="2617.95" width="120" height="30" as="geometry" />
        </mxCell>
        <mxCell id="yPqAMtaEenO2p8fV_E_8-495" value="L14" style="text;html=1;strokeColor=none;fillColor=none;align=center;verticalAlign=middle;whiteSpace=wrap;rounded=0;connectable=0;allowArrows=0;movable=0;resizable=0;rotatable=0;cloneable=0;deletable=0;" parent="yPqAMtaEenO2p8fV_E_8-494" vertex="1">
          <mxGeometry x="5" width="30" height="30" as="geometry" />
        </mxCell>
        <mxCell id="yPqAMtaEenO2p8fV_E_8-496" value="" style="endArrow=classic;startArrow=classic;html=1;rounded=0;verticalAlign=bottom;entryX=-0.001;entryY=0.45;entryDx=0;entryDy=0;entryPerimeter=0;" parent="1" source="yPqAMtaEenO2p8fV_E_8-514" target="yPqAMtaEenO2p8fV_E_8-494" edge="1">
          <mxGeometry width="50" height="50" relative="1" as="geometry">
            <mxPoint x="-1110" y="2649.3081767785643" as="sourcePoint" />
            <mxPoint x="-1250" y="2522.95" as="targetPoint" />
          </mxGeometry>
        </mxCell>
        <mxCell id="yPqAMtaEenO2p8fV_E_8-497" value="Kurzus iformációk" style="endArrow=classic;html=1;rounded=0;verticalAlign=bottom;edgeStyle=orthogonalEdgeStyle;" parent="1" source="yPqAMtaEenO2p8fV_E_8-514" target="yPqAMtaEenO2p8fV_E_8-498" edge="1">
          <mxGeometry x="0.3256" width="50" height="50" relative="1" as="geometry">
            <mxPoint x="-1270" y="2653" as="sourcePoint" />
            <mxPoint x="-1490" y="2636.0259371996153" as="targetPoint" />
            <Array as="points">
              <mxPoint x="-1340" y="2653" />
              <mxPoint x="-1340" y="2613" />
              <mxPoint x="-1530" y="2613" />
            </Array>
            <mxPoint as="offset" />
          </mxGeometry>
        </mxCell>
        <mxCell id="yPqAMtaEenO2p8fV_E_8-498" value="Oktató" style="shape=stencil(tZRtjoMgEIZPw98GJR6gYXfvQe10nZQCAbYft99RNKlW7GajiTGZeeXhnZGBCRka5YCVvGHig5VlwTm9Kb5NYhUc1DElr8qjOmhISojenuGGx9gz0DTgMbaq+GR8T9+0j5C1NYYgaE0YKU86wRQaWsvvCdZv/xhFjvgXiOB7kynLyq+/Y3fVNuBiI79j7OB+db/rgceOi61+3Grg4v9YISmTO9xCHlR9/vb2xxxnzYDW6AK8OfLTeZzO66ynzM5CnqyHBUsn1DqN9UITnWoH/kUY5Iu9PtVUzRY1jx4IGk22K9UioSs+44+uvFxl3bKX1nTZdE12iV8=);whiteSpace=wrap;html=1;" parent="1" vertex="1">
          <mxGeometry x="-1590" y="2637.95" width="120" height="80" as="geometry" />
        </mxCell>
        <mxCell id="yPqAMtaEenO2p8fV_E_8-499" value="Kurzus" style="html=1;dashed=0;whitespace=wrap;shape=mxgraph.dfd.dataStoreID2;align=left;spacingLeft=38;container=1;collapsible=0;flipH=0;" parent="1" vertex="1">
          <mxGeometry x="-1060" y="2706.95" width="120" height="30" as="geometry" />
        </mxCell>
        <mxCell id="yPqAMtaEenO2p8fV_E_8-500" value="L2" style="text;html=1;strokeColor=none;fillColor=none;align=center;verticalAlign=middle;whiteSpace=wrap;rounded=0;connectable=0;allowArrows=0;movable=0;resizable=0;rotatable=0;cloneable=0;deletable=0;" parent="yPqAMtaEenO2p8fV_E_8-499" vertex="1">
          <mxGeometry x="5" width="30" height="30" as="geometry" />
        </mxCell>
        <mxCell id="yPqAMtaEenO2p8fV_E_8-501" value="" style="endArrow=classic;html=1;rounded=0;verticalAlign=bottom;exitX=-0.01;exitY=0.558;exitDx=0;exitDy=0;exitPerimeter=0;" parent="1" source="yPqAMtaEenO2p8fV_E_8-499" target="yPqAMtaEenO2p8fV_E_8-514" edge="1">
          <mxGeometry width="50" height="50" relative="1" as="geometry">
            <mxPoint x="-1350" y="2702.95" as="sourcePoint" />
            <mxPoint x="-1110" y="2706.359937888198" as="targetPoint" />
            <Array as="points">
              <mxPoint x="-1090" y="2713" />
            </Array>
          </mxGeometry>
        </mxCell>
        <mxCell id="yPqAMtaEenO2p8fV_E_8-505" value="Kurzus felvétel" style="html=1;dashed=0;whitespace=wrap;shape=mxgraph.dfd.process;align=center;container=1;collapsible=0;spacingTop=30;" parent="1" vertex="1">
          <mxGeometry x="-1280" y="2294" width="160" height="120" as="geometry" />
        </mxCell>
        <mxCell id="yPqAMtaEenO2p8fV_E_8-506" value="9" style="text;html=1;strokeColor=none;fillColor=none;align=center;verticalAlign=middle;whiteSpace=wrap;rounded=0;movable=0;resizable=0;rotatable=0;cloneable=0;deletable=0;connectable=0;allowArrows=0;pointerEvents=1;" parent="yPqAMtaEenO2p8fV_E_8-505" vertex="1">
          <mxGeometry width="35" height="30" as="geometry" />
        </mxCell>
        <mxCell id="yPqAMtaEenO2p8fV_E_8-507" value="" style="text;html=1;strokeColor=none;fillColor=none;align=left;verticalAlign=middle;whiteSpace=wrap;rounded=0;movable=0;resizable=0;connectable=0;allowArrows=0;rotatable=0;cloneable=0;deletable=0;spacingLeft=6;autosize=1;resizeWidth=0;" parent="yPqAMtaEenO2p8fV_E_8-505" vertex="1">
          <mxGeometry x="35" y="-5" width="50" height="40" as="geometry" />
        </mxCell>
        <mxCell id="yPqAMtaEenO2p8fV_E_8-511" value="Vizsga felvétel" style="html=1;dashed=0;whitespace=wrap;shape=mxgraph.dfd.process;align=center;container=1;collapsible=0;spacingTop=30;" parent="1" vertex="1">
          <mxGeometry x="-1280" y="2150" width="160" height="120" as="geometry" />
        </mxCell>
        <mxCell id="yPqAMtaEenO2p8fV_E_8-512" value="8" style="text;html=1;strokeColor=none;fillColor=none;align=center;verticalAlign=middle;whiteSpace=wrap;rounded=0;movable=0;resizable=0;rotatable=0;cloneable=0;deletable=0;connectable=0;allowArrows=0;pointerEvents=1;" parent="yPqAMtaEenO2p8fV_E_8-511" vertex="1">
          <mxGeometry width="35" height="30" as="geometry" />
        </mxCell>
        <mxCell id="yPqAMtaEenO2p8fV_E_8-513" value="" style="text;html=1;strokeColor=none;fillColor=none;align=left;verticalAlign=middle;whiteSpace=wrap;rounded=0;movable=0;resizable=0;connectable=0;allowArrows=0;rotatable=0;cloneable=0;deletable=0;spacingLeft=6;autosize=1;resizeWidth=0;" parent="yPqAMtaEenO2p8fV_E_8-511" vertex="1">
          <mxGeometry x="35" y="-5" width="50" height="40" as="geometry" />
        </mxCell>
        <mxCell id="yPqAMtaEenO2p8fV_E_8-514" value="Érdemjegy beírása" style="html=1;dashed=0;whitespace=wrap;shape=mxgraph.dfd.process;align=center;container=1;collapsible=0;spacingTop=30;" parent="1" vertex="1">
          <mxGeometry x="-1270" y="2617.95" width="160" height="120" as="geometry" />
        </mxCell>
        <mxCell id="yPqAMtaEenO2p8fV_E_8-515" value="12" style="text;html=1;strokeColor=none;fillColor=none;align=center;verticalAlign=middle;whiteSpace=wrap;rounded=0;movable=0;resizable=0;rotatable=0;cloneable=0;deletable=0;connectable=0;allowArrows=0;pointerEvents=1;" parent="yPqAMtaEenO2p8fV_E_8-514" vertex="1">
          <mxGeometry width="35" height="30" as="geometry" />
        </mxCell>
        <mxCell id="yPqAMtaEenO2p8fV_E_8-516" value="" style="text;html=1;strokeColor=none;fillColor=none;align=left;verticalAlign=middle;whiteSpace=wrap;rounded=0;movable=0;resizable=0;connectable=0;allowArrows=0;rotatable=0;cloneable=0;deletable=0;spacingLeft=6;autosize=1;resizeWidth=0;" parent="yPqAMtaEenO2p8fV_E_8-514" vertex="1">
          <mxGeometry x="35" y="-5" width="50" height="40" as="geometry" />
        </mxCell>
        <mxCell id="yPqAMtaEenO2p8fV_E_8-517" value="Szak" style="html=1;dashed=0;whitespace=wrap;shape=mxgraph.dfd.dataStoreID2;align=left;spacingLeft=38;container=1;collapsible=0;" parent="1" vertex="1">
          <mxGeometry x="-1060" y="1590" width="120" height="30" as="geometry" />
        </mxCell>
        <mxCell id="yPqAMtaEenO2p8fV_E_8-518" value="L3" style="text;html=1;strokeColor=none;fillColor=none;align=center;verticalAlign=middle;whiteSpace=wrap;rounded=0;connectable=0;allowArrows=0;movable=0;resizable=0;rotatable=0;cloneable=0;deletable=0;" parent="yPqAMtaEenO2p8fV_E_8-517" vertex="1">
          <mxGeometry x="5" width="30" height="30" as="geometry" />
        </mxCell>
        <mxCell id="yPqAMtaEenO2p8fV_E_8-520" value="" style="endArrow=classic;startArrow=classic;html=1;rounded=0;verticalAlign=bottom;exitX=1.017;exitY=0.094;exitDx=0;exitDy=0;exitPerimeter=0;entryX=-0.013;entryY=0.429;entryDx=0;entryDy=0;entryPerimeter=0;" parent="1" source="yPqAMtaEenO2p8fV_E_8-55" target="yPqAMtaEenO2p8fV_E_8-517" edge="1">
          <mxGeometry width="50" height="50" relative="1" as="geometry">
            <mxPoint x="-1010" y="1690" as="sourcePoint" />
            <mxPoint x="-890" y="1690" as="targetPoint" />
          </mxGeometry>
        </mxCell>
      </root>
    </mxGraphModel>
  </diagram>
</mxfile>
